<?xml version="1.0" ?><!DOCTYPE svg  PUBLIC '-//W3C//DTD SVG 1.1//EN'  'http://www.w3.org/Graphics/SVG/1.1/DTD/svg11.dtd'><svg class="share_icon" enable-background="new 0 0 48 48" height="48px" id="Layer_1" version="1.1" viewBox="0 0 48 48" width="48px" xml:space="preserve" xmlns="http://www.w3.org/2000/svg" xmlns:xlink="http://www.w3.org/1999/xlink"><g><path d="M24.001,0c-13.255,0-24,10.745-24,24c0,13.256,10.745,24,24,24c13.255,0,24-10.744,24-24   C48.001,10.745,37.257,0,24.001,0z M24.113,44.092c-11.069,0-20.042-8.973-20.042-20.042c0-11.069,8.973-20.042,20.042-20.042   c11.068,0,20.041,8.973,20.041,20.042C44.153,35.119,35.181,44.092,24.113,44.092z" fill="#231F20"/><path d="M31.757,19.763c-0.572,0-1.115,0.124-1.607,0.339l-9.899-5.909c-0.087-2.144-1.839-3.857-4.003-3.857   c-2.221,0-4.021,1.8-4.021,4.02c0,2.221,1.8,4.02,4.021,4.02c1.143,0,2.169-0.482,2.901-1.248l8.845,5.28   c-0.158,0.432-0.258,0.891-0.258,1.377c0,0.327,0.051,0.642,0.125,0.946l-9.407,5.56c-0.634-0.416-1.39-0.664-2.206-0.664   c-2.221,0-4.021,1.801-4.021,4.021s1.8,4.02,4.021,4.02c2.22,0,4.02-1.799,4.02-4.02c0-0.273-0.028-0.541-0.081-0.799l9.518-5.625   c0.602,0.361,1.299,0.58,2.053,0.58c2.219,0,4.02-1.799,4.02-4.02S33.976,19.763,31.757,19.763z M16.247,15.896   c-0.851,0-1.541-0.689-1.541-1.54s0.69-1.541,1.541-1.541c0.85,0,1.54,0.69,1.54,1.541S17.097,15.896,16.247,15.896z    M16.247,35.188c-0.851,0-1.541-0.689-1.541-1.541s0.69-1.541,1.541-1.541c0.85,0,1.54,0.689,1.54,1.541   S17.097,35.188,16.247,35.188z M31.757,25.324c-0.852,0-1.541-0.69-1.541-1.541s0.689-1.541,1.541-1.541   c0.85,0,1.539,0.69,1.539,1.541S32.606,25.324,31.757,25.324z" fill="#231F20"/></g></svg>