<?xml version="1.0" standalone="no"?>
<!-- Generator: Adobe Fireworks 10, Export SVG Extension by Aaron Beall (http://fireworks.abeall.com) . Version: 0.6.1  -->
<!DOCTYPE svg PUBLIC "-//W3C//DTD SVG 1.1//EN" "http://www.w3.org/Graphics/SVG/1.1/DTD/svg11.dtd">
<svg id="Untitled-Page%201" viewBox="0 0 22 19" style="background-color:#ffffff00" version="1.1"
	xmlns="http://www.w3.org/2000/svg" xmlns:xlink="http://www.w3.org/1999/xlink" xml:space="preserve"
	x="0px" y="0px" width="22px" height="19px"
>
	<g id="Layer%201">
		<path id="Icon" opacity="0.098" d="M 21.9996 12.0878 L 21.9996 15.541 C 21.9996 17.4493 20.4848 18.9955 18.6161 18.9955 L 15.2323 18.9955 C 13.3636 18.9955 11.8484 17.4493 11.8484 15.541 L 11.8484 12.0878 L 11.8484 8.6327 C 11.8484 3.8644 15.6359 -0.002 20.3077 -0.002 C 21.2421 -0.002 21.9996 0.7706 21.9996 1.7254 C 21.9996 2.6791 21.2421 3.452 20.3077 3.452 C 17.5047 3.452 15.2323 5.7714 15.2323 8.6327 L 18.6161 8.6327 C 20.4848 8.6327 21.9996 10.1786 21.9996 12.0878 ZM 6.7729 18.9955 L 3.3893 18.9955 C 1.5204 18.9955 0.0056 17.4493 0.0056 15.541 L 0.0056 12.0878 L 0.0056 8.6327 C 0.0056 3.8644 3.7928 -0.002 8.4647 -0.002 C 9.3991 -0.002 10.1566 0.7706 10.1566 1.7254 C 10.1566 2.6791 9.3991 3.452 8.4647 3.452 C 5.6616 3.452 3.3893 5.7714 3.3893 8.6327 L 6.7729 8.6327 C 8.6417 8.6327 10.1566 10.1786 10.1566 12.0878 L 10.1566 15.541 C 10.1566 17.4493 8.6417 18.9955 6.7729 18.9955 Z" fill="#3e3e3e"/>
	</g>
</svg>