<?xml version="1.0" standalone="no"?>
<!-- Generator: Adobe Fireworks 10, Export SVG Extension by Aaron Beall (http://fireworks.abeall.com) . Version: 0.6.1  -->
<!DOCTYPE svg PUBLIC "-//W3C//DTD SVG 1.1//EN" "http://www.w3.org/Graphics/SVG/1.1/DTD/svg11.dtd">
<svg id="Untitled-Page%201" viewBox="0 0 160 45" style="background-color:#ffffff00" version="1.1"
	xmlns="http://www.w3.org/2000/svg" xmlns:xlink="http://www.w3.org/1999/xlink" xml:space="preserve"
	x="0px" y="0px" width="160px" height="45px"
>
	<g id="Layer_1_1">
		<path d="M 27.6073 7.2239 L 39.3623 16.4473 L 15.8526 16.4473 L 27.6073 7.2239 ZM 13.9926 0 L 13.9926 10.912 L 0 22.0454 L 8.6861 22.0454 L 8.6861 44.9967 L 46.5289 44.9967 L 46.5289 27.6962 L 23.2446 27.6962 L 23.2446 33.2945 L 41.0593 33.2945 L 41.0593 39.3988 L 14.1548 39.3988 L 14.1548 22.0454 L 55.2146 22.0454 L 27.6073 0.0802 L 19.4616 6.5605 L 19.4616 0 L 13.9926 0 Z" fill="#0566ca"/>
		<path d="M 68.1073 43.8287 C 66.8211 44.2649 64.3857 44.8641 61.9502 44.8641 C 58.5844 44.8641 56.1491 44.0196 54.4524 42.4114 C 52.7833 40.8032 51.8528 38.4046 51.8528 35.7064 C 51.8804 29.6007 56.3407 26.1121 62.3882 26.1121 C 64.7691 26.1121 66.6022 26.5754 67.5052 26.9842 L 66.6294 30.3368 C 65.6169 29.8735 64.3857 29.5465 62.3606 29.5465 C 58.8857 29.5465 56.2311 31.4821 56.2311 35.4889 C 56.2311 39.3041 58.6394 41.5118 62.0598 41.5118 C 62.9903 41.5118 63.7562 41.4027 64.0844 41.2665 L 64.0844 37.3963 L 61.2389 37.3963 L 61.2389 34.1524 L 68.1073 34.1524 L 68.1073 43.8287 Z" fill="#0566ca"/>
		<path d="M 74.9764 26.1582 L 74.9764 36.7886 C 74.9764 40.0028 76.208 41.6236 78.3146 41.6236 C 80.5042 41.6236 81.7084 40.0852 81.7084 36.7886 L 81.7084 26.1582 L 85.8673 26.1582 L 85.8673 36.5417 C 85.8673 42.2551 82.9942 44.9744 78.1784 44.9744 C 73.5259 44.9744 70.8168 42.3653 70.8168 36.4868 L 70.8168 26.1582 L 74.9764 26.1582 Z" fill="#0566ca"/>
		<path d="M 89.0697 40.4237 C 90.1644 40.9925 91.9155 41.5612 93.6939 41.5612 C 95.6094 41.5612 96.6221 40.7757 96.6221 39.5836 C 96.6221 38.4462 95.7465 37.7961 93.53 37.0377 C 90.465 35.9544 88.44 34.2749 88.44 31.6206 C 88.44 28.5059 91.0944 26.1493 95.4183 26.1493 C 97.5249 26.1493 99.0302 26.5561 100.1249 27.0703 L 99.1941 30.3747 C 98.4829 30.0228 97.1419 29.5079 95.3635 29.5079 C 93.5572 29.5079 92.6816 30.3476 92.6816 31.2686 C 92.6816 32.4332 93.6939 32.9481 96.102 33.8421 C 99.3584 35.0334 100.8633 36.7128 100.8633 39.2863 C 100.8633 42.3471 98.5104 44.9469 93.448 44.9469 C 91.3406 44.9469 89.2612 44.3782 88.2213 43.8098 L 89.0697 40.4237 Z" fill="#0566ca"/>
		<path d="M 106.7473 29.6942 L 101.7672 29.6942 L 101.7672 26.1092 L 115.9418 26.1092 L 115.9418 29.6942 L 110.9069 29.6942 L 110.9069 44.9866 L 106.7473 44.9866 L 106.7473 29.6942 Z" fill="#0566ca"/>
		<path d="M 119.9374 40.1409 L 118.624 44.9866 L 114.328 44.9866 L 119.9374 26.1092 L 125.4104 26.1092 L 131.1569 44.9866 L 126.6419 44.9866 L 125.2189 40.1409 L 119.9374 40.1409 ZM 124.6168 36.9486 L 123.4674 32.9433 C 123.1387 31.8233 122.8109 30.4226 122.5374 29.3026 L 122.4822 29.3026 C 122.2087 30.4226 121.9349 31.8507 121.6342 32.9433 L 120.5392 36.9486 L 124.6168 36.9486 Z" fill="#0566ca"/>
		<path d="M 138.4094 39.9942 L 142.4315 26.1363 L 146.8647 26.1363 L 140.6528 44.9863 L 135.7823 44.9863 L 129.8715 26.1363 L 134.4413 26.1363 L 138.4094 39.9942 Z" fill="#0566ca"/>
		<path d="M 148.2063 40.459 C 149.3006 41.03 151.0522 41.6009 152.8309 41.6009 C 154.7461 41.6009 155.7588 40.8128 155.7588 39.6163 C 155.7588 38.474 154.8832 37.8217 152.6666 37.0603 C 149.6017 35.9726 147.577 34.2868 147.577 31.6217 C 147.577 28.4948 150.231 26.1292 154.5546 26.1292 C 156.6616 26.1292 158.1665 26.5372 159.2615 27.054 L 158.3308 30.371 C 157.6195 30.0176 156.2785 29.5012 154.5002 29.5012 C 152.6938 29.5012 151.8182 30.3439 151.8182 31.2683 C 151.8182 32.4377 152.8309 32.9544 155.2386 33.8513 C 158.4951 35.0482 160 36.7336 160 39.3171 C 160 42.3895 157.6467 45 152.5847 45 C 150.4773 45 148.3975 44.429 147.3579 43.8577 L 148.2063 40.459 Z" fill="#0566ca"/>
	</g>
</svg>