<svg width="32" height="32" xmlns="http://www.w3.org/2000/svg">

 <g>
  <title>background</title>
  <rect fill="none" id="canvas_background" height="402" width="582" y="-1" x="-1"/>
 </g>
 <g>
  <title>Layer 1</title>
  <g id="like">
   <path id="svg_1" fill-rule="evenodd" fill="#ffffff" d="m29.164,10.472c-1.25,-0.328 -4.189,-0.324 -8.488,-0.438c0.203,-0.938 0.25,-1.784 0.25,-3.286c0,-3.588 -2.614,-6.748 -4.926,-6.748c-1.633,0 -2.979,1.335 -3,2.977c-0.022,2.014 -0.645,5.492 -4,7.256c-0.246,0.13 -0.95,0.477 -1.053,0.522l0.053,0.045c-0.525,-0.453 -1.253,-0.8 -2,-0.8l-3,0c-1.654,0 -3,1.346 -3,3l0,16c0,1.654 1.346,3 3,3l3,0c1.19,0 2.186,-0.719 2.668,-1.727c0.012,0.004 0.033,0.01 0.047,0.012c0.066,0.018 0.144,0.037 0.239,0.062c0.018,0.005 0.027,0.007 0.046,0.012c0.576,0.143 1.685,0.408 4.055,0.953c0.508,0.116 3.192,0.688 5.972,0.688l5.467,0c1.666,0 2.867,-0.641 3.582,-1.928c0.01,-0.02 0.24,-0.469 0.428,-1.076c0.141,-0.457 0.193,-1.104 0.023,-1.76c1.074,-0.738 1.42,-1.854 1.645,-2.58c0.377,-1.191 0.264,-2.086 0.002,-2.727c0.604,-0.57 1.119,-1.439 1.336,-2.766c0.135,-0.822 -0.01,-1.668 -0.389,-2.372c0.566,-0.636 0.824,-1.436 0.854,-2.176l0.012,-0.209c0.007,-0.131 0.013,-0.212 0.013,-0.5c0,-1.263 -0.875,-2.874 -2.836,-3.434zm-22.164,18.528c0,0.553 -0.447,1 -1,1l-3,0c-0.553,0 -1,-0.447 -1,-1l0,-16c0,-0.553 0.447,-1 1,-1l3,0c0.553,0 1,0.447 1,1l0,16zm22.977,-14.465c-0.02,0.494 -0.227,1.465 -1.977,1.465c-1.5,0 -2,0 -2,0c-0.277,0 -0.5,0.224 -0.5,0.5s0.223,0.5 0.5,0.5c0,0 0.438,0 1.938,0s1.697,1.244 1.6,1.844c-0.124,0.746 -0.474,2.156 -2.163,2.156c-1.687,0 -2.375,0 -2.375,0c-0.277,0 -0.5,0.223 -0.5,0.5c0,0.275 0.223,0.5 0.5,0.5c0,0 1.188,0 1.969,0c1.688,0 1.539,1.287 1.297,2.055c-0.319,1.009 -0.514,1.945 -2.641,1.945c-0.719,0 -1.631,0 -1.631,0c-0.277,0 -0.5,0.223 -0.5,0.5c0,0.275 0.223,0.5 0.5,0.5c0,0 0.693,0 1.568,0c1.094,0 1.145,1.035 1.031,1.406c-0.125,0.406 -0.273,0.707 -0.279,0.721c-0.302,0.545 -0.789,0.873 -1.82,0.873l-5.467,0c-2.746,0 -5.47,-0.623 -5.54,-0.639c-4.154,-0.957 -4.373,-1.031 -4.634,-1.105c0,0 -0.846,-0.143 -0.846,-0.881l-0.007,-13.812c0,-0.469 0.299,-0.893 0.794,-1.042c0.062,-0.024 0.146,-0.05 0.206,-0.075c4.568,-1.892 5.959,-6.04 6,-9.446c0.006,-0.479 0.375,-1 1,-1c1.057,0 2.926,2.122 2.926,4.748c0,2.371 -0.096,2.781 -0.926,5.252c10,0 9.93,0.144 10.812,0.375c1.094,0.313 1.188,1.219 1.188,1.531c0,0.343 -0.01,0.293 -0.023,0.629z" clip-rule="evenodd"/>
   <path id="svg_2" fill-rule="evenodd" fill="#ffffff" d="m4.5,26c-0.828,0 -1.5,0.672 -1.5,1.5s0.672,1.5 1.5,1.5s1.5,-0.672 1.5,-1.5s-0.672,-1.5 -1.5,-1.5zm0,2c-0.275,0 -0.5,-0.225 -0.5,-0.5s0.225,-0.5 0.5,-0.5s0.5,0.225 0.5,0.5s-0.225,0.5 -0.5,0.5z" clip-rule="evenodd"/>
  </g>
 </g>
</svg>